<?xml version="1.0" encoding="UTF-8"?>
<svg width="24px" height="24px" viewBox="0 0 24 24" version="1.1" xmlns="http://www.w3.org/2000/svg" xmlns:xlink="http://www.w3.org/1999/xlink">
    <!-- Generator: Sketch 45.2 (43514) - http://www.bohemiancoding.com/sketch -->
    <title>icon_night</title>
    <desc>Created with Sketch.</desc>
    <defs></defs>
    <g id="Navigation-+-Contact" stroke="none" stroke-width="1" fill="none" fill-rule="evenodd">
        <g id="icon_night">
            <g>
                <rect id="Rectangle-2" x="0" y="0" width="24" height="24"></rect>
                <path d="M4,11.9776658 C4,16.4082786 7.59172137,20 12.0223342,20 C15.558375,20 18.5600818,17.7122448 19.6280617,14.5361275 C19.6381154,14.5062282 19.6481784,14.4749459 19.6582507,14.4422805 L19.6582186,14.4422706 C19.7542057,14.1309738 19.5796627,13.800805 19.2683659,13.7048179 C19.1083563,13.6554795 18.9349177,13.6764734 18.7913011,13.7625641 C18.7913011,13.7625641 18.7913011,13.7625641 18.7913011,13.7625641 C17.8548829,14.3238984 16.7590345,14.6465957 15.5878161,14.6465957 C12.1417839,14.6465957 9.34822281,11.8530346 9.34822281,8.40700237 C9.34822281,7.30939761 9.6316304,6.27798624 10.1292601,5.38195372 C10.1362894,5.36929676 10.1435402,5.35647015 10.1510126,5.34347389 L10.1509974,5.34346515 C10.3303437,5.03153842 10.222866,4.63328295 9.91093925,4.45393666 C9.74678131,4.35955194 9.54968086,4.3412591 9.37095674,4.40382103 C9.37095674,4.40382103 9.37095674,4.40382103 9.37095674,4.40382103 C6.24323287,5.49867293 4,8.4762018 4,11.9776658 Z" id="Combined-Shape" fill="#FFFFFF"></path>
            </g>
        </g>
    </g>
</svg>