<?xml version="1.0" encoding="UTF-8"?>
<svg width="24px" height="24px" viewBox="0 0 24 24" version="1.1" xmlns="http://www.w3.org/2000/svg" xmlns:xlink="http://www.w3.org/1999/xlink">
    <!-- Generator: Sketch 45.2 (43514) - http://www.bohemiancoding.com/sketch -->
    <title>icon_arrow-right</title>
    <desc>Created with Sketch.</desc>
    <defs></defs>
    <g id="Navigation-+-Contact" stroke="none" stroke-width="1" fill="none" fill-rule="evenodd">
        <g id="icon_arrow-right">
            <g id="Shape">
                <polygon points="0 0 24 0 24 24 0 24"></polygon>
                <path d="M21,11 L7.83,11 L10.7059839,8.11598258 L10.7059839,8.11598258 C11.09496,7.72591999 11.0945197,7.0945197 10.705,6.705 L10.705,6.705 L10.705,6.705 C10.3156393,6.31563925 9.68436075,6.31563925 9.295,6.705 L4,12 L9.295,17.295 L9.295,17.295 C9.68436075,17.6843607 10.3156393,17.6843607 10.705,17.295 L10.705,17.295 L10.705,17.295 C11.0945197,16.9054803 11.09496,16.27408 10.7059839,15.8840174 L7.83,13 L21,13 L21,11 Z" fill="#FFFFFF" fill-rule="nonzero" transform="translate(12.500000, 12.000000) scale(-1, 1) translate(-12.500000, -12.000000) "></path>
            </g>
        </g>
    </g>
</svg>