<?xml version="1.0" encoding="UTF-8"?>
<svg width="30px" height="30px" viewBox="0 0 30 30" version="1.1" xmlns="http://www.w3.org/2000/svg" xmlns:xlink="http://www.w3.org/1999/xlink">
    <!-- Generator: Sketch 64 (93537) - https://sketch.com -->
    <title>icon_error</title>
    <desc>Created with Sketch.</desc>
    <g id="icon_error" stroke="none" stroke-width="1" fill="none" fill-rule="evenodd">
        <rect id="Rectangle-4" x="0" y="0" width="30" height="30"></rect>
        <path d="M13.317981,3.96039627 C13.8833829,3.0168746 15.0947333,2.71757551 16.0236079,3.29189305 C16.2924254,3.4581013 16.5181053,3.68733986 16.6817333,3.96039627 L28.7126383,24.0371231 C29.2780402,24.9806448 28.9833874,26.2110966 28.0545128,26.7854141 C27.7460454,26.9761377 27.3918813,27.077017 27.0307621,27.077017 L2.96895224,27.077017 C1.88152994,27.077017 1,26.1815865 1,25.077017 C1,24.7102035 1.09931328,24.3504547 1.28707608,24.0371231 L13.317981,3.96039627 Z M3,25.077017 L27,25.077017 L15,5.00029016 L3,25.077017 Z M13.9980434,20.077017 L13.9980434,10.8091578 C13.9980434,10.2568731 14.4457586,9.80915781 14.9980434,9.80915781 C15.5503281,9.80915781 15.9980434,10.2568731 15.9980434,10.8091578 L15.9980434,20.077017 L13.9980434,20.077017 Z M14.9998549,21.077017 C15.5521397,21.077017 15.9998549,21.5247323 15.9998549,22.077017 C15.9998549,22.6293018 15.5521397,23.077017 14.9998549,23.077017 C14.4475702,23.077017 13.9998549,22.6293018 13.9998549,22.077017 C13.9998549,21.5247323 14.4475702,21.077017 14.9998549,21.077017 Z" id="Shape" fill="#BDC3C7" fill-rule="nonzero"></path>
    </g>
</svg>