<?xml version="1.0" encoding="UTF-8"?>
<svg width="30px" height="30px" viewBox="0 0 30 30" version="1.1" xmlns="http://www.w3.org/2000/svg" xmlns:xlink="http://www.w3.org/1999/xlink">
    <!-- Generator: Sketch 64 (93537) - https://sketch.com -->
    <title>icon_success</title>
    <desc>Created with Sketch.</desc>
    <g id="icon_success" stroke="none" stroke-width="1" fill="none" fill-rule="evenodd">
        <path d="M15,2.86666667 C8.29894503,2.86666667 2.86666667,8.29894503 2.86666667,15 C2.86666667,21.7010549 8.29894503,27.1333333 15,27.1333333 C21.7010549,27.1333333 27.1333333,21.7010549 27.1333333,15 C27.1333333,8.29894503 21.7010549,2.86666667 15,2.86666667 Z M15,1 C22.7319865,1 29,7.2680135 29,15 C29,22.7319865 22.7319865,29 15,29 C7.2680135,29 1,22.7319865 1,15 C1,7.2680135 7.2680135,1 15,1 Z M21.6465656,10.0599663 C21.2820764,9.69547699 20.6911224,9.69547699 20.326633,10.0599663 L13.1199152,17.2666842 L10.4465656,14.5933347 C10.0820763,14.2288454 9.49112233,14.2288454 9.12663299,14.5933347 C8.76214366,14.957824 8.76214366,15.548778 9.12663299,15.9132673 L13.1199152,19.9065495 L21.6465656,11.3798989 C22.011055,11.0154097 22.011055,10.4244557 21.6465656,10.0599663 Z" id="Shape" fill="#BDC3C7" fill-rule="nonzero"></path>
    </g>
</svg>